<svg width="24" height="27" viewBox="0 0 24 27" fill="none" xmlns="http://www.w3.org/2000/svg">
<path d="M11.2769 0V4.25817H12.7232V0H11.2768H11.2769ZM5.37097 1.27964L4.18599 2.10933L6.62794 5.59653L7.81228 4.76683L5.37097 1.27964ZM18.6289 1.27964L16.1876 4.76685L17.3721 5.59656L19.8141 2.10933L18.6291 1.27964H18.6289ZM11.9998 5.42323C8.46155 5.42323 5.59331 7.5718 5.59331 10.2226L9.23316 21.2457H14.767L18.4065 10.2226C18.4065 7.57185 15.5385 5.42323 12.0001 5.42323H11.9998ZM0.49417 6.70118L0 8.06108L3.99935 9.51713L4.49536 8.15788L0.49408 6.70118H0.49417ZM23.5057 6.70118L19.5044 8.15799L19.9987 9.5174L24 8.0611L23.5057 6.70118ZM4.30215 12.9179L0.18985 14.0209L0.562976 15.417L4.67528 14.3155L4.30222 12.9179H4.30215ZM19.6977 12.9179L19.3248 14.3155L23.4371 15.4168L23.81 14.0207L19.6977 12.9178V12.9179ZM9.15248 22.0493V23.9654H14.8477V22.0496H9.1525L9.15248 22.0493ZM9.15248 24.9179V26.834H14.8477V24.9182H9.1525L9.15248 24.9179Z" fill="white"/>
</svg>
