<svg width="24" height="23" viewBox="0 0 24 23" fill="none" xmlns="http://www.w3.org/2000/svg">
<g clip-path="url(#clip0)">
<path fill-rule="evenodd" clip-rule="evenodd" d="M11.3379 18.6706V20.6951C8.29695 20.8122 5.78119 21.5605 5.78119 22.4739C5.78165 22.4821 5.78356 22.4903 5.78684 22.4979L18.2188 22.5106C18.2188 22.5106 18.2259 22.4852 18.2259 22.4753C18.2259 21.5633 15.6593 20.8136 12.617 20.6965V18.6071" fill="white"/>
<path d="M11.3111 17.0287C15.2189 17.0287 18.3868 13.8488 18.3868 9.92611C18.3868 6.00345 15.2189 2.82352 11.3111 2.82352C7.40322 2.82352 4.23529 6.00345 4.23529 9.92611C4.23529 13.8488 7.40322 17.0287 11.3111 17.0287Z" fill="white"/>
<path fill-rule="evenodd" clip-rule="evenodd" d="M11.3506 19.7238C9.11717 19.7209 6.9529 18.9486 5.22215 17.5369C5.07953 17.419 4.98906 17.2496 4.9703 17.0655C4.95155 16.8814 5.00601 16.6972 5.12191 16.5529C5.17914 16.4822 5.24975 16.4235 5.32971 16.3801C5.40967 16.3367 5.4974 16.3095 5.58789 16.3001C5.67837 16.2906 5.76983 16.2991 5.85702 16.3251C5.94422 16.351 6.02544 16.3939 6.09603 16.4513C7.57436 17.6719 9.4335 18.3363 11.3506 18.3289C15.9572 18.3289 19.7026 14.5482 19.7026 9.90495C19.7026 5.78542 16.6659 2.20659 12.6367 1.58118C12.2112 1.51514 11.7812 1.4821 11.3506 1.48236C11.1663 1.48161 10.9898 1.40776 10.8598 1.27701C10.7298 1.14626 10.6571 0.969291 10.6574 0.784944C10.6574 0.399532 10.968 0.0861206 11.3506 0.0861206C11.8476 0.0861206 12.3501 0.124238 12.8485 0.200474C17.5469 0.931768 21.089 5.10636 21.089 9.90636C21.089 15.3191 16.721 19.7238 11.3506 19.7238Z" fill="white"/>
</g>
<defs>
<clipPath id="clip0">
<rect width="24" height="22.5882" fill="white"/>
</clipPath>
</defs>
</svg>
