<svg width="24" height="25" viewBox="0 0 24 25" fill="none" xmlns="http://www.w3.org/2000/svg">
<path d="M16.2823 7.74192C15.5806 3.42096 13.9258 0.387085 12 0.387085C10.0742 0.387085 8.41935 3.42096 7.71774 7.74192H16.2823ZM7.35484 12.3871C7.35484 13.4613 7.4129 14.4919 7.51452 15.4839H16.4806C16.5823 14.4919 16.6403 13.4613 16.6403 12.3871C16.6403 11.3129 16.5823 10.2822 16.4806 9.29031H7.51452C7.4129 10.2822 7.35484 11.3129 7.35484 12.3871ZM23.0661 7.74192C21.6823 4.45644 18.8806 1.91612 15.421 0.890311C16.6016 2.52579 17.4145 4.9887 17.8403 7.74192H23.0661ZM8.57419 0.890311C5.11935 1.91612 2.3129 4.45644 0.933871 7.74192H6.15968C6.58065 4.9887 7.39355 2.52579 8.57419 0.890311ZM23.5839 9.29031H18.0339C18.1355 10.3064 18.1935 11.3468 18.1935 12.3871C18.1935 13.4274 18.1355 14.4677 18.0339 15.4839H23.579C23.8452 14.4919 23.9952 13.4613 23.9952 12.3871C23.9952 11.3129 23.8452 10.2822 23.5839 9.29031ZM5.80645 12.3871C5.80645 11.3468 5.86452 10.3064 5.96613 9.29031H0.416129C0.154839 10.2822 0 11.3129 0 12.3871C0 13.4613 0.154839 14.4919 0.416129 15.4839H5.96129C5.86452 14.4677 5.80645 13.4274 5.80645 12.3871ZM7.71774 17.0322C8.41935 21.3532 10.0742 24.3871 12 24.3871C13.9258 24.3871 15.5806 21.3532 16.2823 17.0322H7.71774ZM15.4258 23.8839C18.8806 22.8581 21.6871 20.3177 23.071 17.0322H17.8452C17.4194 19.7855 16.6065 22.2484 15.4258 23.8839ZM0.933871 17.0322C2.31774 20.3177 5.11935 22.8581 8.57903 23.8839C7.39839 22.2484 6.58548 19.7855 6.15968 17.0322H0.933871Z" fill="white"/>
</svg>
