<svg width="24" height="24" viewBox="0 0 24 24" fill="none" xmlns="http://www.w3.org/2000/svg">
<path d="M19.68 9.11999H19.5495C19.5138 9.05688 19.4709 8.99809 19.4218 8.94479L13.8807 3.00815C13.9051 2.88959 13.92 2.76671 13.92 2.63999C13.92 1.71215 13.2365 0.959991 12.3927 0.959991H10.6469C9.80354 0.959991 9.12002 1.71215 9.12002 2.63999C9.12002 2.76671 9.13538 2.88959 9.15938 3.00815L3.61826 8.94479C3.56942 8.99834 3.5266 9.05709 3.49058 9.11999H0.960022V12.48H1.92002V19.68C1.92002 20.3165 2.17288 20.927 2.62297 21.377C3.07305 21.8271 3.6835 22.08 4.32002 22.08H19.68C20.3165 22.08 20.927 21.8271 21.3771 21.377C21.8272 20.927 22.08 20.3165 22.08 19.68V12.48H23.04V9.11999H19.68ZM10.6474 4.31999H12.3931L12.4714 4.31135L16.9589 9.11999H6.08114L10.5691 4.31135L10.6474 4.31999ZM6.24002 19.2C6.24002 19.728 5.80802 20.16 5.28002 20.16C4.75202 20.16 4.32002 19.728 4.32002 19.2V13.44C4.32002 12.912 4.75202 12.48 5.28002 12.48C5.80802 12.48 6.24002 12.912 6.24002 13.44V19.2ZM10.56 19.2C10.56 19.728 10.128 20.16 9.60002 20.16C9.07202 20.16 8.64002 19.728 8.64002 19.2V13.44C8.64002 12.912 9.07202 12.48 9.60002 12.48C10.128 12.48 10.56 12.912 10.56 13.44V19.2ZM15.36 19.2C15.36 19.728 14.928 20.16 14.4 20.16C13.872 20.16 13.44 19.728 13.44 19.2V13.44C13.44 12.912 13.872 12.48 14.4 12.48C14.928 12.48 15.36 12.912 15.36 13.44V19.2ZM19.68 19.2C19.68 19.728 19.248 20.16 18.72 20.16C18.192 20.16 17.76 19.728 17.76 19.2V13.44C17.76 12.912 18.192 12.48 18.72 12.48C19.248 12.48 19.68 12.912 19.68 13.44V19.2Z" fill="white"/>
</svg>
